<?xml version="1.0" standalone="no"?>
<!DOCTYPE svg PUBLIC "-//W3C//DTD SVG 20010904//EN"
 "http://www.w3.org/TR/2001/REC-SVG-20010904/DTD/svg10.dtd">
<svg version="1.0" xmlns="http://www.w3.org/2000/svg"
 width="512.000000pt" height="512.000000pt" viewBox="0 0 512.000000 512.000000"
 preserveAspectRatio="xMidYMid meet">
<metadata>
Created by potrace 1.14, written by Peter Selinger 2001-2017
</metadata>
<g transform="translate(0.000000,512.000000) scale(0.100000,-0.100000)"
fill="#000000" stroke="none">
<path d="M2389 5106 c-2 -2 -38 -6 -79 -10 -116 -10 -144 -14 -304 -47 -54
-12 -116 -27 -137 -34 -22 -8 -43 -14 -47 -15 -4 0 -36 -10 -72 -21 -173 -57
-403 -165 -543 -255 -37 -24 -70 -44 -73 -44 -5 0 -182 -135 -248 -190 -68
-56 -249 -246 -323 -337 -135 -169 -259 -370 -337 -549 -45 -103 -57 -132 -62
-149 -2 -5 -19 -57 -39 -114 -80 -239 -118 -473 -119 -746 -1 -259 13 -406 58
-612 65 -297 236 -675 410 -909 17 -23 40 -55 51 -70 39 -55 149 -180 229
-259 265 -263 582 -464 929 -591 107 -38 303 -93 392 -108 17 -3 41 -8 55 -10
14 -3 48 -8 75 -11 28 -4 61 -9 75 -11 51 -9 437 -11 505 -4 110 13 169 21
185 25 8 2 35 7 60 10 25 4 95 20 156 35 390 101 740 284 1044 549 106 92 243
234 310 321 19 24 41 51 48 59 61 65 252 392 315 537 46 108 116 323 133 407
2 10 6 27 9 37 6 20 10 39 19 91 3 19 7 43 10 54 2 11 6 43 10 70 3 28 9 73
13 100 9 71 9 395 1 485 -9 86 -16 144 -23 180 -3 14 -7 41 -10 60 -3 19 -8
43 -11 52 -3 9 -7 25 -9 35 -31 154 -108 377 -183 533 -202 417 -499 763 -877
1019 -92 62 -125 82 -257 154 -154 85 -475 200 -643 231 -18 4 -53 10 -120 22
-11 2 -38 6 -60 9 -22 3 -56 8 -75 10 -41 6 -436 15 -441 11z"/>
</g>
</svg>
