<?xml version="1.0" standalone="no"?>
<!DOCTYPE svg PUBLIC "-//W3C//DTD SVG 20010904//EN"
 "http://www.w3.org/TR/2001/REC-SVG-20010904/DTD/svg10.dtd">
<svg version="1.0" xmlns="http://www.w3.org/2000/svg"
 width="260.000000pt" height="260.000000pt" viewBox="0 0 260.000000 260.000000"
 preserveAspectRatio="xMidYMid meet">
<metadata>
Created by potrace 1.14, written by Peter Selinger 2001-2017
</metadata>
<g transform="translate(0.000000,260.000000) scale(0.100000,-0.100000)"
fill="#000000" stroke="none">
<path d="M1307 2394 c-1 -1 -40 -5 -87 -8 -87 -6 -146 -13 -190 -21 -14 -3
-38 -7 -55 -10 -50 -8 -186 -51 -246 -78 -258 -115 -392 -316 -388 -582 5
-274 101 -434 327 -546 95 -46 205 -78 432 -125 200 -40 270 -68 299 -115 17
-28 18 -36 7 -63 -29 -73 -144 -110 -336 -109 -130 0 -315 28 -387 58 -18 8
-33 12 -33 10 0 -6 -139 53 -196 84 -30 16 -55 26 -57 23 -2 -4 -3 -137 -3
-297 l1 -290 65 -17 c67 -18 228 -53 290 -63 19 -3 46 -8 60 -10 28 -6 67 -11
161 -20 71 -8 382 -9 415 -1 12 2 45 7 75 11 128 15 295 67 417 129 163 83
290 221 343 373 28 79 34 130 33 253 -4 348 -220 537 -691 606 -26 3 -57 8
-68 11 -11 2 -60 10 -109 19 -117 19 -184 48 -193 83 -34 130 134 189 452 157
75 -8 106 -12 145 -20 14 -3 39 -8 55 -12 17 -3 80 -21 141 -40 62 -19 115
-34 118 -34 3 0 6 126 6 280 0 154 -3 280 -7 280 -5 0 -42 7 -83 16 -41 9 -86
18 -100 20 -14 2 -40 7 -59 10 -19 3 -53 7 -75 10 -23 2 -54 6 -71 9 -79 12
-398 27 -408 19z"/>
</g>
</svg>
