<?xml version="1.0" encoding="UTF-8"?>
<svg width="700pt" height="700pt" version="1.1" viewBox="0 0 700 700" xmlns="http://www.w3.org/2000/svg" xmlns:xlink="http://www.w3.org/1999/xlink">
 <g>
  <path fill="#354b74" d="m350 554.4c-151.2 0-274.4-123.2-274.4-274.4s123.2-274.4 274.4-274.4 274.4 123.2 274.4 274.4-123.2 274.4-274.4 274.4zm0-487.76c-117.6 0-213.36 95.758-213.36 213.36s95.758 213.36 213.36 213.36 213.36-95.758 213.36-213.36-95.758-213.36-213.36-213.36z"/>
  <path fill="#354b74" d="m442.4 402.64c-7.8398 0-15.68-2.8008-21.281-8.9609l-184.24-183.68c-11.762-11.762-11.762-31.359 0-43.121 11.762-11.762 31.359-11.762 43.121 0l183.68 183.68c11.762 11.762 11.762 31.359 0 43.121-6.1602 6.1602-14 8.9609-21.281 8.9609z"/>
  <path fill="#354b74" d="m258.72 402.08c-7.8398 0-15.68-2.8008-21.281-8.9609-11.762-11.762-11.762-31.359 0-43.121l183.68-183.68c11.762-11.762 31.359-11.762 43.121 0 11.762 11.762 11.762 31.359 0 43.121l-184.24 183.68c-5.6016 5.5977-13.441 8.957-21.281 8.957z"/>
 </g>
</svg>